<svg width="20" height="20" viewBox="0 0 20 20" fill="none" xmlns="http://www.w3.org/2000/svg">
<path d="M8.66667 4.99998L10 3.33331C6.318 3.33331 3.33334 6.31798 3.33334 9.99998C3.33334 13.682 6.318 16.6666 10 16.6666C13.682 16.6666 16.6667 13.682 16.6667 9.99998C16.6667 7.26665 15.0213 4.91665 12.6667 3.88798" stroke="white" stroke-linecap="round" stroke-linejoin="round"/>
<path d="M7 8.99996L8.66667 7.66663V12.3333" stroke="white" stroke-linecap="round" stroke-linejoin="round"/>
<path d="M10.3333 11.1666V8.83329C10.3333 8.52387 10.4563 8.22713 10.675 8.00833C10.8938 7.78954 11.1906 7.66663 11.5 7.66663C11.8094 7.66663 12.1062 7.78954 12.325 8.00833C12.5438 8.22713 12.6667 8.52387 12.6667 8.83329V11.1666C12.6667 11.476 12.5438 11.7728 12.325 11.9916C12.1062 12.2104 11.8094 12.3333 11.5 12.3333C11.1906 12.3333 10.8938 12.2104 10.675 11.9916C10.4563 11.7728 10.3333 11.476 10.3333 11.1666Z" stroke="white" stroke-linecap="round"/>
</svg>
